<?xml version="1.0" encoding="utf-8"?>
<!-- Generator: Adobe Illustrator 17.0.1, SVG Export Plug-In . SVG Version: 6.00 Build 0)  -->
<!DOCTYPE svg PUBLIC "-//W3C//DTD SVG 1.1//EN" "http://www.w3.org/Graphics/SVG/1.1/DTD/svg11.dtd">
<svg version="1.1" id="Layer_1" xmlns="http://www.w3.org/2000/svg" xmlns:xlink="http://www.w3.org/1999/xlink" x="0px" y="0px"
	 width="17px" height="17px" viewBox="0 0 17 17" enable-background="new 0 0 17 17" xml:space="preserve">
<path d="M16.741,15.483l-4.19-4.207c1.078-1.237,1.668-2.794,1.668-4.414C14.219,3.079,11.03,0,7.109,0C3.189,0,0,3.079,0,6.863
	c0,3.785,3.189,6.864,7.109,6.864c1.472,0,2.875-0.428,4.074-1.243l4.223,4.24C15.582,16.903,15.819,17,16.074,17
	c0.24,0,0.468-0.089,0.641-0.25C17.085,16.407,17.096,15.84,16.741,15.483z M7.109,11.937c-2.896,0-5.254-2.276-5.254-5.073
	c0-2.796,2.357-5.072,5.254-5.072c2.898,0,5.256,2.276,5.256,5.072C12.364,9.661,10.006,11.937,7.109,11.937z"/>
</svg>
