<?xml version="1.0" encoding="utf-8"?><svg xmlns="http://www.w3.org/2000/svg" xmlns:xlink="http://www.w3.org/1999/xlink"><symbol viewBox="0 0 12 7" id="arrow" xmlns="http://www.w3.org/2000/svg"><path d="M.246 1.468l5.16 5.28a.822.822 0 0 0 1.187.001l5.16-5.28a.872.872 0 0 0 0-1.216.826.826 0 0 0-1.188 0L6 4.924 1.434.251a.828.828 0 0 0-1.188 0 .876.876 0 0 0 0 1.217z"/></symbol><symbol viewBox="0 0 17 17" id="search" xmlns="http://www.w3.org/2000/svg"><path d="M16.741 15.483l-4.19-4.207a6.703 6.703 0 0 0 1.668-4.414C14.219 3.079 11.03 0 7.109 0 3.189 0 0 3.079 0 6.863c0 3.785 3.189 6.864 7.109 6.864a7.2 7.2 0 0 0 4.074-1.243l4.223 4.24a.927.927 0 0 0 .668.276c.24 0 .468-.089.641-.25a.874.874 0 0 0 .026-1.267zm-9.632-3.546c-2.896 0-5.254-2.276-5.254-5.073 0-2.796 2.357-5.072 5.254-5.072 2.898 0 5.256 2.276 5.256 5.072-.001 2.797-2.359 5.073-5.256 5.073z"/></symbol></svg>